<?xml version="1.0" encoding="UTF-8" standalone="no"?>
<!-- Created with Inkscape (http://www.inkscape.org/) -->

<svg
   xmlns:dc="http://purl.org/dc/elements/1.1/"
   xmlns:cc="http://creativecommons.org/ns#"
   xmlns:rdf="http://www.w3.org/1999/02/22-rdf-syntax-ns#"
   xmlns:svg="http://www.w3.org/2000/svg"
   xmlns="http://www.w3.org/2000/svg"
   xmlns:sodipodi="http://sodipodi.sourceforge.net/DTD/sodipodi-0.dtd"
   xmlns:inkscape="http://www.inkscape.org/namespaces/inkscape"
   width="66mm"
   height="28mm"
   viewBox="0 0 66 28"
   version="1.1"
   id="svg8"
   inkscape:version="0.92.2 (5c3e80d, 2017-08-06)"
   sodipodi:docname="sqlie.svg">
  <defs
     id="defs2" />
  <sodipodi:namedview
     id="base"
     pagecolor="#ffffff"
     bordercolor="#666666"
     borderopacity="1.0"
     inkscape:pageopacity="0.0"
     inkscape:pageshadow="2"
     inkscape:zoom="2.8"
     inkscape:cx="32.615798"
     inkscape:cy="22.024632"
     inkscape:document-units="mm"
     inkscape:current-layer="layer1"
     showgrid="false"
     showguides="true"
     inkscape:guide-bbox="true"
     inkscape:window-width="1920"
     inkscape:window-height="1018"
     inkscape:window-x="-8"
     inkscape:window-y="-8"
     inkscape:window-maximized="1" />
  <metadata
     id="metadata5">
    <rdf:RDF>
      <cc:Work
         rdf:about="">
        <dc:format>image/svg+xml</dc:format>
        <dc:type
           rdf:resource="http://purl.org/dc/dcmitype/StillImage" />
        <dc:title></dc:title>
      </cc:Work>
    </rdf:RDF>
  </metadata>
  <g
     inkscape:label="Layer 1"
     inkscape:groupmode="layer"
     id="layer1"
     transform="translate(0,-269)">
    <text
       xml:space="preserve"
       style="font-style:normal;font-weight:normal;font-size:33.73751068px;line-height:1.25;font-family:sans-serif;letter-spacing:0px;word-spacing:0px;fill:#00117d;fill-opacity:0.98941806;stroke:none;stroke-width:0.84343797"
       x="-1.0333726"
       y="295.44131"
       id="text4506-6-9-0"><tspan
         sodipodi:role="line"
         id="tspan4504-37-9-9"
         x="-1.0333726"
         y="295.44131"
         style="font-style:normal;font-variant:normal;font-weight:normal;font-stretch:normal;font-family:'Poiret One';-inkscape-font-specification:'Poiret One';letter-spacing:0px;fill:#00117d;fill-opacity:0.98941806;stroke-width:0.84343797">S<tspan
   style="letter-spacing:0px;word-spacing:0.0079375px"
   id="tspan4798"
   dx="20">l</tspan>ie</tspan></text>
    <g
       id="g4596-4-1-9"
       transform="matrix(0.93479816,0,0,1.014977,-64.316631,67.732451)"
       style="fill:#00107d;fill-opacity:0.99215686">
      <ellipse
         ry="2.8303237"
         rx="8.3109789"
         cy="206.4747"
         cx="95.722466"
         id="path4521-45-3-3"
         style="fill:#00107d;fill-opacity:0.99215686;stroke:none;stroke-width:0.27357841;stroke-opacity:0" />
      <path
         d="m 90.100066,210.72693 a 0.7559495,0.7559495 0 0 1 -0.75595,0.75595 0.7559495,0.7559495 0 0 1 -0.755949,-0.75595 0.7559495,0.7559495 0 0 1 0.755949,-0.75595 0.7559495,0.7559495 0 0 1 0.75595,0.75595 z m -2.693074,-3.30729 v 4.06324 c 0,0 2.126119,2.78758 8.504466,2.83482 6.142112,-0.0472 8.126482,-2.83482 8.126482,-2.83482 v -4.06324 c 0,0 -2.03157,2.55134 -8.12648,2.59858 -6.267463,0.0486 -8.504468,-2.59858 -8.504468,-2.59858 z"
         style="fill:#00107d;fill-opacity:0.99215686;stroke:#000000;stroke-width:0.26458332;stroke-opacity:0"
         id="path4539-1-1-6"
         inkscape:connector-curvature="0" />
      <path
         d="m 90.100066,215.94277 a 0.75594951,0.75594951 0 0 1 -0.75595,0.75595 0.75594951,0.75594951 0 0 1 -0.755949,-0.75595 0.75594951,0.75594951 0 0 1 0.755949,-0.75595 0.75594951,0.75594951 0 0 1 0.75595,0.75595 z m -2.693074,-3.30729 v 4.06324 c 0,0 2.126119,2.78758 8.504467,2.83482 6.142111,-0.0472 8.126481,-2.83482 8.126481,-2.83482 v -4.06324 c 0,0 -2.03157,2.55134 -8.126479,2.59858 -6.267464,0.0486 -8.504469,-2.59858 -8.504469,-2.59858 z"
         style="fill:#00107d;fill-opacity:0.99215686;stroke:#000000;stroke-width:0.26458332;stroke-opacity:0"
         id="path4539-0-5-5-9"
         inkscape:connector-curvature="0" />
      <path
         d="m 90.100066,221.21046 a 0.75594951,0.75594951 0 0 1 -0.75595,0.75595 0.75594951,0.75594951 0 0 1 -0.755949,-0.75595 0.75594951,0.75594951 0 0 1 0.755949,-0.75595 0.75594951,0.75594951 0 0 1 0.75595,0.75595 z m -2.693074,-3.30729 v 4.06324 c 0,0 2.126119,2.78758 8.504467,2.83482 6.142111,-0.0472 8.126481,-2.83482 8.126481,-2.83482 v -4.06324 c 0,0 -2.03157,2.55134 -8.126479,2.59858 -6.267464,0.0486 -8.504469,-2.59858 -8.504469,-2.59858 z"
         style="fill:#00107d;fill-opacity:0.99215686;stroke:#000000;stroke-width:0.26458332;stroke-opacity:0"
         id="path4539-0-7-8-4-2"
         inkscape:connector-curvature="0" />
    </g>
  </g>
</svg>
